<?xml version="1.0" encoding="utf-8"?>
<!-- Generator: Adobe Illustrator 23.0.1, SVG Export Plug-In . SVG Version: 6.00 Build 0)  -->
<svg version="1.1" id="Layer_1" xmlns="http://www.w3.org/2000/svg" xmlns:xlink="http://www.w3.org/1999/xlink" x="0px" y="0px"
	 viewBox="0 0 30 30" style="enable-background:new 0 0 30 30;" xml:space="preserve">
<style type="text/css">
	.st0{fill:#FFFFFF;stroke:#000000;stroke-miterlimit:10;}
</style>
<path class="st0" d="M14.5,13.5c1.46,1.48,1.98,2.83,2,4c0.01,0.61-0.12,0.95,0,1c0.46,0.18,2.58-5.04,2-6
	c-0.32-0.54-0.73-0.82-0.73-0.82c-0.19-0.14-0.25-0.13-0.27-0.18c-0.17-0.5,5.19-1.49,6-4c0.63-1.96-1.45-4.97-4-6
	c-4.09-1.65-8.82,2.05-11,5c-1.4,1.89-3.72,6.15-2,8C7.8,15.9,11.2,15.66,14.5,13.5z"/>
<circle class="st0" cx="10" cy="10" r="0.5"/>
<circle class="st0" cx="13" cy="9" r="0.5"/>
<circle class="st0" cx="16" cy="8" r="0.5"/>
<circle class="st0" cx="19" cy="7" r="0.5"/>
<ellipse class="st0" cx="9.5" cy="21.5" rx="5" ry="4"/>
<path class="st0" d="M7.35,29.17c0.77-0.22,1.38-0.33,2.22-0.41c1.1-0.11,2.13-0.01,3.23,0.16c0.24,0.04,0.47,0.09,0.7,0.14
	c0-0.02,0-0.04,0-0.06c0-2.49-1.57-4.5-3.5-4.5S6.5,26.51,6.5,29c0,0.11,0.02,0.22,0.02,0.33C6.67,29.29,7.18,29.22,7.35,29.17z"/>
<ellipse class="st0" cx="22.5" cy="20.5" rx="5" ry="4"/>
<path class="st0" d="M20.35,28.17c0.77-0.22,1.38-0.33,2.22-0.41c1.1-0.11,2.13-0.01,3.23,0.16c0.24,0.04,0.47,0.09,0.7,0.14
	c0-0.02,0-0.04,0-0.06c0-2.49-1.57-4.5-3.5-4.5s-3.5,2.01-3.5,4.5c0,0.11,0.02,0.22,0.02,0.33C19.67,28.29,20.18,28.22,20.35,28.17z
	"/>
</svg>
