<?xml version="1.0" encoding="utf-8"?>
<!-- Generator: Adobe Illustrator 23.0.1, SVG Export Plug-In . SVG Version: 6.00 Build 0)  -->
<svg version="1.1" id="Layer_1" xmlns="http://www.w3.org/2000/svg" xmlns:xlink="http://www.w3.org/1999/xlink" x="0px" y="0px"
	 viewBox="0 0 30 30" style="enable-background:new 0 0 30 30;" xml:space="preserve">
<g>
	<g>
		<path d="M3.98,13.09c-0.96,1.55-2.49,4.73-0.85,6.3c1.48,1.43,4.41,1.98,5.85,0.25c1.23-1.47-0.89-3.61-2.12-2.12
			c-0.25,0.31-0.49,0.22-0.87,0.09c-0.21-0.08-0.43-0.27-0.64-0.32c-0.07-0.04-0.14-0.08-0.21-0.12c0.2,0.53,0.3,0.65,0.31,0.35
			c0.21-0.24,0.24-1.08,0.36-1.41c0.19-0.54,0.46-1.03,0.76-1.51C7.59,12.96,5,11.45,3.98,13.09L3.98,13.09z"/>
	</g>
</g>
<g>
	<g>
		<path d="M7.92,12.45c1.22,2.2,2.3,4.45,3.22,6.79c0.57,1.44,3.08,1.44,2.95-0.4c-0.1-1.34-0.56-3.53,0.31-4.65
			c1.45-1.86,2.16,0.68,2.49,1.86c0.52,1.86,3.42,1.07,2.89-0.8c-0.79-2.81-2.43-5.78-5.8-4.4c-3.37,1.39-3.13,4.89-2.9,7.98
			c0.98-0.13,1.96-0.27,2.95-0.4c-1.02-2.58-2.18-5.08-3.52-7.5C9.57,9.25,6.98,10.76,7.92,12.45L7.92,12.45z"/>
	</g>
</g>
<g>
	<g>
		<path d="M20.99,8.45c-0.98,1.47-1.89,3.07-2.09,4.87c-0.18,1.6,0.32,3.69,2.1,4.15c3.32,0.87,5.01-5.44,4.4-7.69
			c-0.62,0.62-1.23,1.23-1.85,1.85c1.46,0.36,2.74,0.94,3.97,1.78c1.6,1.09,3.1-1.5,1.51-2.59c-1.44-0.98-3-1.67-4.69-2.09
			c-1.1-0.27-2.15,0.72-1.85,1.85c0.25,0.9-0.11,1.78-0.49,2.6c-0.13,0.29-0.27,0.57-0.44,0.84c-0.08,0.15-0.18,0.29-0.29,0.42
			c-0.37,0.39-0.17,0.38,0.6-0.04c0.09-0.12,0.02-0.97,0.07-1.18c0.07-0.36,0.21-0.73,0.35-1.06c0.33-0.78,0.82-1.49,1.28-2.19
			C24.66,8.36,22.06,6.85,20.99,8.45L20.99,8.45z"/>
	</g>
</g>
<g>
	<g>
		<path d="M13.86,21.64c1.65,1.76,3.3,4.09,5.58,5.05c0.75,0.32,1.6,0.22,2.05-0.54c0.37-0.63,0.21-1.74-0.54-2.05
			c-2.03-0.86-3.51-3.01-4.97-4.58C14.66,18.1,12.54,20.23,13.86,21.64L13.86,21.64z"/>
	</g>
</g>
<g>
	<g>
		<path d="M15.69,25.47c1.19-1.91,3.19-3.03,5.09-4.11c1.68-0.96,0.17-3.55-1.51-2.59c-2.37,1.36-4.69,2.82-6.17,5.19
			C12.07,25.6,14.66,27.11,15.69,25.47L15.69,25.47z"/>
	</g>
</g>
</svg>
