<?xml version="1.0" encoding="utf-8"?>
<!-- Generator: Adobe Illustrator 23.0.1, SVG Export Plug-In . SVG Version: 6.00 Build 0)  -->
<svg version="1.1" id="Layer_1" xmlns="http://www.w3.org/2000/svg" xmlns:xlink="http://www.w3.org/1999/xlink" x="0px" y="0px"
	 viewBox="0 0 30 30" style="enable-background:new 0 0 30 30;" xml:space="preserve">
<style type="text/css">
	.st0{fill:#FFFFFF;}
	.st1{font-family:'MyriadPro-Regular';}
	.st2{font-size:6.62px;}
</style>
<g>
	<rect x="2.5" y="2.5" class="st0" width="7" height="7"/>
	<path d="M9,3v6H3V3H9 M10,2H2v8h8V2L10,2z"/>
</g>
<g>
	<rect x="20.5" y="11.5" class="st0" width="7" height="7"/>
	<path d="M27,12v6h-6v-6H27 M28,11h-8v8h8V11L28,11z"/>
</g>
<g>
	<rect x="20.5" y="2.5" class="st0" width="7" height="7"/>
	<path d="M27,3v6h-6V3H27 M28,2h-8v8h8V2L28,2z"/>
</g>
<g>
	<rect x="2.5" y="20.5" class="st0" width="7" height="7"/>
	<path d="M9,21v6H3v-6H9 M10,20H2v8h8V20L10,20z"/>
</g>
<g>
	<rect x="2.5" y="11.5" class="st0" width="7" height="7"/>
	<path d="M9,12v6H3v-6H9 M10,11H2v8h8V11L10,11z"/>
</g>
<g>
	<rect x="11.5" y="11.5" class="st0" width="7" height="7"/>
	<path d="M18,12v6h-6v-6H18 M19,11h-8v8h8V11L19,11z"/>
</g>
<g>
	<rect x="11.5" y="20.5" class="st0" width="7" height="7"/>
	<path d="M18,21v6h-6v-6H18 M19,20h-8v8h8V20L19,20z"/>
</g>
<text transform="matrix(1.2206 0 0 1 13.7197 17.3447)" class="st1 st2">?</text>
<text transform="matrix(1.2206 0 0 1 13.7197 26.3447)" class="st1 st2">?</text>
<text transform="matrix(1.2206 0 0 1 4.7197 17.3447)" class="st1 st2">?</text>
<text transform="matrix(1.2206 0 0 1 22.7197 17.3447)" class="st1 st2">?</text>
<text transform="matrix(1.2206 0 0 1 22.7197 8.3447)" class="st1 st2">?</text>
<text transform="matrix(1.2206 0 0 1 4.7197 8.3447)" class="st1 st2">?</text>
<g>
	<circle class="st0" cx="6" cy="24" r="2.5"/>
	<path d="M6,22c1.1,0,2,0.9,2,2s-0.9,2-2,2s-2-0.9-2-2S4.9,22,6,22 M6,21c-1.66,0-3,1.34-3,3s1.34,3,3,3s3-1.34,3-3S7.66,21,6,21
		L6,21z"/>
</g>
</svg>
